<svg
  width="41"
  height="40"
  viewBox="0 0 41 40"
  fill="none"
  xmlns="http://www.w3.org/2000/svg"
>
  <path
    d="M9.76 26.81C9.44 26.81 9.28 26.54 9.28 26C9.26 25.5 9.27 24.71 9.31 23.63C9.35 22.55 9.37 21.34 9.37 20C9.37 18.92 9.34 17.81 9.28 16.67C9.24 15.51 9.14 14.4 8.98 13.34C8.84 12.26 8.63 11.3 8.35 10.46C8.07 9.62 7.7 8.95 7.24 8.45C6.8 7.95 6.26 7.7 5.62 7.7C4.94 7.7 4.34 7.87 3.82 8.21C3.32 8.53 2.85 8.93 2.41 9.41C1.99 9.89 1.56 10.36 1.12 10.82C1 10.96 0.92 11 0.88 10.94C0.82 10.88 0.8 10.81 0.82 10.73C1 10.33 1.3 9.88 1.72 9.38C2.16 8.88 2.65 8.41 3.19 7.97C3.75 7.51 4.32 7.14 4.9 6.86C5.5 6.56 6.04 6.41 6.52 6.41C7.28 6.41 7.93 6.76 8.47 7.46C9.01 8.16 9.44 9.1 9.76 10.28C10.1 11.46 10.34 12.79 10.48 14.27C10.64 15.73 10.72 17.24 10.72 18.8C10.72 21.14 10.58 23.34 10.3 25.4C10.66 24.18 11.09 22.83 11.59 21.35C12.09 19.85 12.67 18.3 13.33 16.7C13.99 15.08 14.72 13.49 15.52 11.93C16.34 10.37 17.23 8.92 18.19 7.58C19.17 6.22 20.23 5.05 21.37 4.07C22.53 3.07 23.76 2.34 25.06 1.88C25.58 1.72 26.05 1.64 26.47 1.64C27.17 1.64 27.78 1.83 28.3 2.21C28.84 2.57 29.17 3.12 29.29 3.86V3.92C29.29 4.1 29.25 4.28 29.17 4.46C29.11 4.64 29.04 4.73 28.96 4.73C28.84 4.73 28.78 4.52 28.78 4.1C28.78 3.62 28.65 3.21 28.39 2.87C28.13 2.51 27.7 2.33 27.1 2.33C26.74 2.33 26.3 2.42 25.78 2.6C24.26 3.12 22.78 4.09 21.34 5.51C19.92 6.93 18.57 8.68 17.29 10.76C16.01 12.84 14.82 15.16 13.72 17.72C12.62 20.26 11.64 22.94 10.78 25.76C10.7 26.04 10.55 26.28 10.33 26.48C10.13 26.7 9.94 26.81 9.76 26.81Z"
    fill="black"
  />
  <path
    d="M27.3137 22.405C27.1537 22.405 27.0737 22.27 27.0737 22C27.0637 21.75 27.0687 21.355 27.0887 20.815C27.1087 20.275 27.1187 19.67 27.1187 19C27.1187 18.46 27.1037 17.905 27.0737 17.335C27.0537 16.755 27.0037 16.2 26.9237 15.67C26.8537 15.13 26.7487 14.65 26.6087 14.23C26.4687 13.81 26.2837 13.475 26.0537 13.225C25.8337 12.975 25.5637 12.85 25.2437 12.85C24.9037 12.85 24.6037 12.935 24.3437 13.105C24.0937 13.265 23.8587 13.465 23.6387 13.705C23.4287 13.945 23.2137 14.18 22.9937 14.41C22.9337 14.48 22.8937 14.5 22.8737 14.47C22.8437 14.44 22.8337 14.405 22.8437 14.365C22.9337 14.165 23.0837 13.94 23.2937 13.69C23.5137 13.44 23.7587 13.205 24.0287 12.985C24.3087 12.755 24.5937 12.57 24.8837 12.43C25.1837 12.28 25.4537 12.205 25.6937 12.205C26.0737 12.205 26.3987 12.38 26.6687 12.73C26.9387 13.08 27.1537 13.55 27.3137 14.14C27.4837 14.73 27.6037 15.395 27.6737 16.135C27.7537 16.865 27.7937 17.62 27.7937 18.4C27.7937 19.57 27.7237 20.67 27.5837 21.7C27.7637 21.09 27.9787 20.415 28.2287 19.675C28.4787 18.925 28.7687 18.15 29.0987 17.35C29.4287 16.54 29.7937 15.745 30.1937 14.965C30.6037 14.185 31.0487 13.46 31.5287 12.79C32.0187 12.11 32.5487 11.525 33.1187 11.035C33.6987 10.535 34.3137 10.17 34.9637 9.94C35.2237 9.86 35.4587 9.82 35.6687 9.82C36.0187 9.82 36.3237 9.915 36.5837 10.105C36.8537 10.285 37.0187 10.56 37.0787 10.93V10.96C37.0787 11.05 37.0587 11.14 37.0187 11.23C36.9887 11.32 36.9537 11.365 36.9137 11.365C36.8537 11.365 36.8237 11.26 36.8237 11.05C36.8237 10.81 36.7587 10.605 36.6287 10.435C36.4987 10.255 36.2837 10.165 35.9837 10.165C35.8037 10.165 35.5837 10.21 35.3237 10.3C34.5637 10.56 33.8237 11.045 33.1037 11.755C32.3937 12.465 31.7187 13.34 31.0787 14.38C30.4387 15.42 29.8437 16.58 29.2937 17.86C28.7437 19.13 28.2537 20.47 27.8237 21.88C27.7837 22.02 27.7087 22.14 27.5987 22.24C27.4987 22.35 27.4037 22.405 27.3137 22.405Z"
    fill="black"
  />

  <style>
    @media (prefers-color-scheme: dark) {
      :root {
        filter: invert(100%);
      }
    }
  </style>
</svg>
